<?xml version="1.0" encoding="utf-8"?>
<!-- Generator: Adobe Illustrator 19.2.0, SVG Export Plug-In . SVG Version: 6.00 Build 0)  -->
<svg version="1.1" id="Calque_1" xmlns="http://www.w3.org/2000/svg" xmlns:xlink="http://www.w3.org/1999/xlink" x="0px" y="0px"
	 viewBox="0 0 219 219" style="enable-background:new 0 0 219 219;" xml:space="preserve">
<style type="text/css">
	.st0{opacity:0.5;fill:#FFFFFF;enable-background:new    ;}
	.st1{fill:#0C6399;stroke:#FFFFFF;stroke-miterlimit:10;}
	.st2{fill:#FFFFFF;stroke:#FFFFFF;stroke-width:3;stroke-miterlimit:10;}
</style>
<circle class="st0" cx="109" cy="109" r="104"/>
<circle class="st1" cx="109" cy="109" r="79"/>
<g>
	<path class="st2" d="M113.9,67.8c2.6,0,5.2,0.3,7.8,0.9c2.6,0.6,4.7,1.4,6.4,2.3l-2.2,8c-1.7-0.9-3.5-1.6-5.4-2.1s-4.1-0.8-6.6-0.8
		c-5.5,0-9.9,2.2-13.3,6.6s-5,10.1-5,17.2v1.2c2.2-2,4.8-3.5,7.7-4.6s6-1.7,9.4-1.7c6.9,0,12.3,2.4,16.4,7.1
		c4.1,4.7,6.1,10.8,6.1,18c0,7.9-2.2,14.4-6.5,19.4s-10.1,7.5-17.4,7.5c-7.5,0-13.7-2.7-18.7-8.2c-4.9-5.4-7.4-13.1-7.4-23v-14.7
		c0-9.8,2.7-17.8,8.2-23.9C98.9,70.9,105.7,67.8,113.9,67.8z M110.3,102.5c-3.5,0-6.6,0.7-9.1,2.2c-2.5,1.4-4.4,3.4-5.7,5.7v6.2
		c0,7.1,1.5,12.5,4.5,16.3s6.7,5.7,11.2,5.7c4.3,0,7.6-1.8,9.9-5.4c2.4-3.6,3.6-8.1,3.6-13.4c0-5.1-1.3-9.2-3.8-12.5
		C118.4,104.1,114.9,102.5,110.3,102.5z"/>
</g>
</svg>
